<svg width="64" height="64" fill="none" xmlns="http://www.w3.org/2000/svg"><rect width="64" height="64" rx="32" fill="#000810"/><path d="M28.626 35.502v-1.575l-3.041-1.325 3.041-1.51v-1.575l-5.17 2.683v.923l5.17 2.38ZM29.558 38.012h1.76l3.107-10.853h-1.76l-3.107 10.853ZM35.39 35.502l5.171-2.379V32.2l-5.17-2.683v1.575l3.04 1.51-3.04 1.325v1.575Z" fill="#fff"/><path fill-rule="evenodd" clip-rule="evenodd" d="M32 11.009 13.74 21.55v21.086L32 53.179l18.26-10.542V21.55L32 11.01Zm20 9.538L32 9 12 20.547v23.094l20 11.547 20-11.547V20.547Z" fill="#fff"/><path d="m17.908 25.334 3.76 2.242v11.08l9.616 5.552.103 4.472-13.547-7.91.068-15.436ZM32.613 48.68l.104-4.523 9.527-5.5v-11.03l3.847-2.293.068 15.436-13.546 7.91Z" fill="#fff"/><path fill-rule="evenodd" clip-rule="evenodd" d="m32 16.233 13.623 7.777-4.197 2.296-9.47-5.468-9.328 5.386-3.962-2.214 13.333-7.777Z" fill="#fff"/></svg>