<svg aria-hidden="true" style="width:0;height:0;position:absolute;overflow:hidden" xmlns="http://www.w3.org/2000/svg"><defs><symbol id="keyboard" viewBox="0 0 36 32"><path d="M34 4H2C.9 4 0 4.9 0 6v20c0 1.1.9 2 2 2h32c1.1 0 2-.9 2-2V6c0-1.1-.9-2-2-2zM20 8h4v4h-4V8zm6 6v4h-4v-4h4zM14 8h4v4h-4V8zm6 6v4h-4v-4h4zM8 8h4v4H8V8zm6 6v4h-4v-4h4zM4 8h2v4H4V8zm0 6h4v4H4v-4zm2 10H4v-4h2v4zm18 0H8v-4h16v4zm8 0h-6v-4h6v4zm0-6h-4v-4h4v4zm0-6h-6V8h6v4z"/></symbol><symbol id="search" viewBox="0 0 32 32"><path d="m31.008 27.231-7.58-6.447c-.784-.705-1.622-1.029-2.299-.998a11.954 11.954 0 0 0 2.87-7.787c0-6.627-5.373-12-12-12s-12 5.373-12 12 5.373 12 12 12c2.972 0 5.691-1.081 7.787-2.87-.031.677.293 1.515.998 2.299l6.447 7.58c1.104 1.226 2.907 1.33 4.007.23s.997-2.903-.23-4.007zM12 20a8 8 0 1 1 0-16 8 8 0 0 1 0 16z"/></symbol></defs></svg>