<svg width="162" height="36" fill="none" xmlns="http://www.w3.org/2000/svg"><path d="M12.603 20.09v-1.195l-2.305-1.004 2.305-1.145v-1.194l-3.92 2.034v.7l3.92 1.803ZM13.31 21.992h1.334l2.355-8.227h-1.334l-2.355 8.227ZM17.73 20.09l3.92-1.804v-.7l-3.92-2.034v1.194l2.306 1.145-2.306 1.005v1.194Z" fill="#fff"/><path fill-rule="evenodd" clip-rule="evenodd" d="M15.16 1.523 1.32 9.514v15.984l13.842 7.991 13.842-7.991V9.514L15.16 1.523Zm15.161 7.23L15.161 0 0 8.753v17.506l15.16 8.753 15.161-8.753V8.753Z" fill="#fff"/><path d="m4.478 12.382 2.851 1.7v8.399l7.288 4.207.079 3.39-10.27-5.995.052-11.701ZM15.625 30.079l.079-3.429 7.221-4.17v-8.36l2.917-1.738.052 11.7-10.269 5.997Z" fill="#fff"/><path fill-rule="evenodd" clip-rule="evenodd" d="m15.16 5.483 10.327 5.895-3.181 1.74-7.179-4.144-7.07 4.082-3.004-1.678L15.16 5.483Z" fill="#fff"/><path d="M46.302 9.906h2.13L54.5 25.108H52.24l-1.523-3.784h-6.72l-1.478 3.784h-2.284l6.068-15.202Zm3.805 9.57-2.74-7.112-2.74 7.111h5.48ZM63.355 17.387l-5.48-7.48h2.544l4.22 5.74 4.218-5.74h2.544l-5.501 7.48 5.697 7.72h-2.544l-4.415-6.002-4.415 6.003H57.68l5.676-7.72ZM76.195 9.906h2.24v15.202h-2.24V9.906ZM91.013 25.434c-1.507 0-2.87-.326-4.088-.979a7.316 7.316 0 0 1-2.87-2.805c-.697-1.203-1.045-2.58-1.045-4.132 0-1.551.349-2.929 1.044-4.132a7.316 7.316 0 0 1 2.871-2.805c1.218-.667 2.58-1 4.088-1s2.871.333 4.089 1a7.315 7.315 0 0 1 2.87 2.805c.697 1.203 1.044 2.58 1.044 4.132 0 1.551-.348 2.929-1.044 4.132a7.315 7.315 0 0 1-2.87 2.805c-1.218.653-2.58.979-4.089.979Zm0-2c1.073 0 2.045-.24 2.915-.719a5.393 5.393 0 0 0 2.087-2.066c.508-.898.761-1.942.761-3.131 0-1.174-.253-2.204-.76-3.088a5.1 5.1 0 0 0-2.045-2.066c-.87-.493-1.841-.74-2.914-.74-1.087 0-2.073.24-2.958.718-.87.479-1.565 1.167-2.087 2.066-.508.899-.761 1.936-.761 3.11 0 1.189.253 2.233.76 3.131a5.438 5.438 0 0 0 2.067 2.066c.884.479 1.863.718 2.935.718ZM103.587 9.906h2.218l5.415 11.853 5.415-11.853h2.219v15.202h-2.153V14.299l-4.937 10.809h-1.087l-4.959-10.809v10.809h-2.131V9.906ZM123.856 9.906h2.24v15.202h-2.24V9.906ZM138.718 25.434c-1.566 0-2.958-.326-4.175-.979a7.058 7.058 0 0 1-2.849-2.762c-.682-1.203-1.022-2.595-1.022-4.175 0-1.58.34-2.972 1.022-4.176a7.018 7.018 0 0 1 2.849-2.783c1.217-.653 2.609-.979 4.175-.979 2.088 0 3.835.53 5.241 1.588v2.131c-1.261-1.116-2.943-1.675-5.045-1.675-1.175 0-2.219.24-3.132.718a5.164 5.164 0 0 0-2.109 2.066c-.508.885-.762 1.921-.762 3.11 0 1.189.254 2.233.762 3.131a5.31 5.31 0 0 0 2.131 2.066c.913.479 1.95.718 3.11.718 1.073 0 2.029-.138 2.87-.413a7.122 7.122 0 0 0 2.371-1.37v2.153c-1.305 1.087-3.117 1.63-5.437 1.63ZM153.801 9.906h2.131L162 25.108h-2.262l-1.522-3.784h-6.72l-1.479 3.784h-2.283l6.067-15.202Zm3.806 9.57-2.74-7.112-2.74 7.111h5.48Z" fill="#fff"/></svg>