<svg width="0" height="0" class="hide" xmlns="http://www.w3.org/2000/svg"><symbol viewBox="0 0 16 16" fill="none" id="lang"><path d="M12.706 12.447 11.279 9.6l-1.426 2.847M10.113 11.94h2.347" stroke="#fff" stroke-linecap="round" stroke-linejoin="round"/><path d="M11.28 14.667a3.387 3.387 0 1 1 .001-6.775 3.387 3.387 0 0 1 0 6.775ZM3.346 1.333H5.96c1.38 0 2.046.667 2.013 2.014V5.96c.033 1.38-.633 2.047-2.013 2.013H3.346C2 8 1.333 7.333 1.333 5.953V3.34C1.333 2 2 1.333 3.346 1.333ZM6.007 3.9H3.301M4.647 3.447V3.9" stroke="#fff" stroke-linecap="round" stroke-linejoin="round"/><path d="M5.327 3.893c0 1.167-.913 2.114-2.033 2.114" stroke="#fff" stroke-linecap="round" stroke-linejoin="round"/><path d="M6.007 6.007c-.487 0-.927-.26-1.234-.674M1.333 10A4.663 4.663 0 0 0 6 14.667L5.3 13.5M14.667 6A4.663 4.663 0 0 0 10 1.333l.7 1.167" stroke="#fff" stroke-linecap="round" stroke-linejoin="round"/></symbol><symbol viewBox="0 0 24 24" id="soc-1"><path fill-rule="evenodd" clip-rule="evenodd" d="M19.792 5.424c.86.23 1.54.911 1.771 1.771.424 1.566.437 4.814.437 4.814s0 3.26-.424 4.814a2.519 2.519 0 0 1-1.771 1.771c-1.553.424-7.805.424-7.805.424s-6.252 0-7.805-.424a2.519 2.519 0 0 1-1.771-1.771C2 15.257 2 12.009 2 12.009s0-3.248.41-4.801c.232-.86.912-1.54 1.772-1.772C5.736 5.013 11.987 5 11.987 5s6.252 0 7.805.424Zm-4.608 6.585-5.187 3.004V9.005l5.187 3.004Z"/></symbol><symbol viewBox="0 0 25 24" id="soc-2"><path fill-rule="evenodd" clip-rule="evenodd" d="M22.5 12c0 5.523-4.477 10-10 10s-10-4.477-10-10 4.477-10 10-10 10 4.477 10 10Zm-9.642-2.618c-.972.405-2.916 1.242-5.831 2.513-.474.188-.722.372-.744.552-.039.304.343.424.862.587l.218.07c.51.166 1.198.36 1.555.368.324.007.685-.127 1.084-.4 2.724-1.84 4.13-2.769 4.218-2.789.063-.014.149-.032.207.02.059.052.053.15.047.177-.038.161-1.534 1.552-2.308 2.271-.241.225-.413.384-.448.42-.078.082-.158.159-.235.233-.474.457-.83.8.02 1.36.408.27.735.492 1.061.714.356.242.711.484 1.17.785.118.077.23.156.338.234.415.296.787.56 1.247.518.267-.024.543-.275.683-1.025.332-1.77.983-5.608 1.133-7.19a1.763 1.763 0 0 0-.017-.393.421.421 0 0 0-.142-.27c-.12-.098-.305-.118-.387-.117-.377.007-.954.207-3.73 1.362Z"/></symbol><symbol viewBox="0 0 24 24" id="soc-3"><circle cx="11.5" cy="12.5" r="10.5"/><path fill-rule="evenodd" clip-rule="evenodd" d="M8.825 18.385v-8.357H6.158v8.357h2.667ZM7.49 8.887C8.421 8.887 9 8.246 9 7.444 8.983 6.624 8.421 6 7.509 6 6.596 6 6 6.624 6 7.444c0 .802.579 1.443 1.474 1.443h.017ZM10 18.615h2.77v-4.7c0-.252.018-.503.09-.683.201-.503.657-1.023 1.422-1.023 1.002 0 1.403.771 1.403 1.903v4.503h2.77V13.79c0-2.586-1.367-3.789-3.19-3.789-1.493 0-2.15.844-2.514 1.418h.019v-1.22H10c.036.79 0 8.417 0 8.417Z" fill="#000810"/></symbol><symbol viewBox="0 0 10 18" fill="none" id="arrow"><path d="m1 1 8 8-8 8" stroke-linecap="round"/></symbol><symbol viewBox="0 0 20 24" id="cursor"><path d="M3.497 23.786 0 0l19.449 11.875-10.359 1.63-5.593 10.28Z"/></symbol></svg>