<svg width="21" height="21" viewBox="0 0 21 21" fill="none" xmlns="http://www.w3.org/2000/svg">
<path d="M10.5 -4.5897e-07C8.07077 -3.52785e-07 5.71669 0.842302 3.83887 2.38339C1.96105 3.92448 0.675673 6.069 0.201754 8.45155C-0.272165 10.8341 0.094695 13.3073 1.23983 15.4497C2.38496 17.5921 4.23751 19.2711 6.48182 20.2007C8.72614 21.1304 11.2234 21.253 13.548 20.5479C15.8726 19.8427 17.8808 18.3533 19.2304 16.3335C20.58 14.3137 21.1875 11.8884 20.9494 9.47082C20.7113 7.05329 19.6423 4.7931 17.9246 3.07538L10.5 10.5L10.5 -4.5897e-07Z" fill="#0072F8"/>
<circle cx="10.5" cy="10.5" r="7.5" fill="white"/>
</svg>
