<svg width="64" height="64" viewBox="0 0 64 64" fill="none" xmlns="http://www.w3.org/2000/svg">
<rect width="64" height="64" rx="32" fill="#000810"/>
<path d="M28.6264 35.5022V33.9271L25.5847 32.6018L28.6264 31.0918V29.5167L23.4556 32.1998V33.1232L28.6264 35.5022Z" fill="white"/>
<path d="M29.5584 38.0116H31.3182L34.4251 27.1594H32.6653L29.5584 38.0116Z" fill="white"/>
<path d="M35.3901 35.5022L40.561 33.1232V32.1998L35.3901 29.5167V31.0918L38.4318 32.6018L35.3901 33.9271V35.5022Z" fill="white"/>
<path fill-rule="evenodd" clip-rule="evenodd" d="M32 11.0086L13.7395 21.5513V42.6367L32 53.1794L50.2605 42.6367V21.5513L32 11.0086ZM52 20.547L32 9L12 20.547V43.641L32 55.188L52 43.641V20.547Z" fill="white"/>
<path d="M17.9079 25.3342L21.6688 27.5759V38.6566L31.2836 44.2077L31.3866 48.68L17.8398 40.77L17.9079 25.3342Z" fill="white"/>
<path d="M32.6127 48.68L32.7168 44.1569L42.2436 38.6566V27.6277L46.0914 25.3342L46.1594 40.77L32.6127 48.68Z" fill="white"/>
<path fill-rule="evenodd" clip-rule="evenodd" d="M31.9993 16.2328L45.6229 24.0097L41.4258 26.3057L31.9561 20.8384L22.6276 26.2243L18.6655 24.0097L31.9993 16.2328Z" fill="white"/>
</svg>
