<svg width="162" height="36" viewBox="0 0 162 36" fill="none" xmlns="http://www.w3.org/2000/svg">
<path d="M12.6032 20.0895V18.8955L10.2976 17.8908L12.6032 16.7462V15.5522L8.68359 17.5862V18.2861L12.6032 20.0895Z" fill="white"/>
<path d="M13.3097 21.9916H14.6437L16.9988 13.7653H15.6648L13.3097 21.9916Z" fill="white"/>
<path d="M17.7303 20.0895L21.65 18.2861V17.5862L17.7303 15.5522V16.7462L20.036 17.8908L17.7303 18.8955V20.0895Z" fill="white"/>
<path fill-rule="evenodd" clip-rule="evenodd" d="M15.1606 1.52257L1.31859 9.51426V25.4976L15.1606 33.4893L29.0026 25.4976V9.51426L15.1606 1.52257ZM30.3212 8.75298L15.1606 0L0 8.75298V26.2589L15.1606 35.0119L30.3212 26.2589V8.75298Z" fill="white"/>
<path d="M4.47837 12.3818L7.3292 14.0811V22.4806L14.6175 26.6885L14.6956 30.0786L4.42676 24.0826L4.47837 12.3818Z" fill="white"/>
<path d="M15.625 30.0786L15.704 26.65L22.9255 22.4806V14.1204L25.8422 12.3818L25.8939 24.0826L15.625 30.0786Z" fill="white"/>
<path fill-rule="evenodd" clip-rule="evenodd" d="M15.1601 5.48273L25.4872 11.3778L22.3057 13.1183L15.1274 8.9739L8.05609 13.0565L5.05273 11.3778L15.1601 5.48273Z" fill="white"/>
<path d="M46.3016 9.90647H48.4328L54.5002 25.1077H52.2385L50.7162 21.3237H43.9964L42.5176 25.1077H40.2341L46.3016 9.90647ZM50.1073 19.4752L47.3672 12.3639L44.627 19.4752H50.1073Z" fill="white"/>
<path d="M63.355 17.3875L57.8748 9.90647H60.4192L64.6381 15.6477L68.8571 9.90647H71.4015L65.8995 17.3875L71.5972 25.1077H69.0528L64.6381 19.1055L60.2235 25.1077H57.6791L63.355 17.3875Z" fill="white"/>
<path d="M76.195 9.90647H78.435V25.1077H76.195V9.90647Z" fill="white"/>
<path d="M91.0135 25.4339C89.5057 25.4339 88.1429 25.1077 86.925 24.4553C85.7072 23.7884 84.7503 22.8532 84.0544 21.6499C83.3585 20.4466 83.0105 19.0693 83.0105 17.518C83.0105 15.9667 83.3585 14.5893 84.0544 13.386C84.7503 12.1827 85.7072 11.2475 86.925 10.5806C88.1429 9.91372 89.5057 9.58026 91.0135 9.58026C92.5213 9.58026 93.8841 9.91372 95.1019 10.5806C96.3198 11.2475 97.2766 12.1827 97.9725 13.386C98.6685 14.5893 99.0164 15.9667 99.0164 17.518C99.0164 19.0693 98.6685 20.4466 97.9725 21.6499C97.2766 22.8532 96.3198 23.7884 95.1019 24.4553C93.8841 25.1077 92.5213 25.4339 91.0135 25.4339ZM91.0135 23.4332C92.0863 23.4332 93.0577 23.194 93.9276 22.7155C94.812 22.2226 95.5079 21.5339 96.0153 20.6495C96.5227 19.7507 96.7765 18.7068 96.7765 17.518C96.7765 16.3436 96.5227 15.3143 96.0153 14.4299C95.5224 13.531 94.841 12.8423 93.9711 12.3639C93.1012 11.871 92.1298 11.6245 91.057 11.6245C89.9696 11.6245 88.9837 11.8637 88.0994 12.3421C87.2295 12.8206 86.5336 13.5092 86.0116 14.4081C85.5042 15.307 85.2505 16.3436 85.2505 17.518C85.2505 18.7068 85.5042 19.7507 86.0116 20.6495C86.5191 21.5339 87.2077 22.2226 88.0776 22.7155C88.962 23.194 89.9406 23.4332 91.0135 23.4332Z" fill="white"/>
<path d="M103.587 9.90647H105.805L111.22 21.7586L116.635 9.90647H118.854V25.1077H116.701V14.2994L111.764 25.1077H110.677L105.718 14.2994V25.1077H103.587V9.90647Z" fill="white"/>
<path d="M123.856 9.90647H126.096V25.1077H123.856V9.90647Z" fill="white"/>
<path d="M138.718 25.4339C137.152 25.4339 135.76 25.1077 134.543 24.4553C133.325 23.8029 132.375 22.8822 131.694 21.6934C131.012 20.4901 130.672 19.0982 130.672 17.518C130.672 15.9377 131.012 14.5459 131.694 13.3425C132.375 12.1392 133.325 11.2113 134.543 10.5589C135.76 9.90647 137.152 9.58026 138.718 9.58026C140.806 9.58026 142.553 10.1094 143.959 11.1678V13.299C142.698 12.1827 141.016 11.6245 138.914 11.6245C137.739 11.6245 136.695 11.8637 135.782 12.3421C134.883 12.8206 134.18 13.5092 133.673 14.4081C133.165 15.2925 132.911 16.3291 132.911 17.518C132.911 18.7068 133.165 19.7507 133.673 20.6495C134.195 21.5484 134.905 22.2371 135.804 22.7155C136.717 23.194 137.754 23.4332 138.914 23.4332C139.987 23.4332 140.943 23.2954 141.784 23.02C142.64 22.73 143.43 22.2733 144.155 21.6499V23.8029C142.85 24.8902 141.038 25.4339 138.718 25.4339Z" fill="white"/>
<path d="M153.801 9.90647H155.932L162 25.1077H159.738L158.216 21.3237H151.496L150.017 25.1077H147.734L153.801 9.90647ZM157.607 19.4752L154.867 12.3639L152.127 19.4752H157.607Z" fill="white"/>
</svg>
