<svg width="21" height="21" viewBox="0 0 21 21" fill="none" xmlns="http://www.w3.org/2000/svg">
<g clip-path="url(#clip0_819_53523)">
<path d="M-4.36328 -4.34005C-4.36328 -5.51139 -3.37977 -6.46152 -2.16649 -6.46152H23.1672C24.3804 -6.46152 25.364 -5.51139 25.364 -4.34005V21.0324C25.364 22.2041 24.3804 23.1539 23.1672 23.1539H-2.16649C-3.37977 23.1539 -4.36328 22.2041 -4.36328 21.0324V-4.34005Z" fill="white"/>
<path fill-rule="evenodd" clip-rule="evenodd" d="M7.18789 15.8848V7.52852H4.52094V15.8848H7.18789ZM5.8544 6.38761C6.78442 6.38761 7.36328 5.74593 7.36328 4.94403C7.34595 4.12408 6.78442 3.50021 5.87204 3.50021C4.95976 3.50021 4.36328 4.12408 4.36328 4.94403C4.36328 5.74593 4.94202 6.38761 5.83702 6.38761H5.8544Z" fill="#000810"/>
<path fill-rule="evenodd" clip-rule="evenodd" d="M8.72656 15.8848H11.4963V11.1839C11.4963 10.9324 11.5143 10.681 11.5874 10.5012C11.7876 9.99851 12.2433 9.4779 13.0085 9.4779C14.0107 9.4779 14.4116 10.2498 14.4116 11.3815V15.8848H17.1811V11.0581C17.1811 8.47256 15.8147 7.26944 13.9924 7.26944C12.4982 7.26944 11.8423 8.11312 11.4778 8.68778H11.4963V7.46697H8.72664C8.76298 8.25685 8.72656 15.8848 8.72656 15.8848Z" fill="#000810"/>
</g>
<defs>
<clipPath id="clip0_819_53523">
<rect width="21" height="21" rx="10.5" fill="white"/>
</clipPath>
</defs>
</svg>
