<svg width="0" height="0" class="hide" xmlns="http://www.w3.org/2000/svg">

    <symbol viewBox="0 0 16 16" fill="none" id="lang">
        <path d="M12.7059 12.4469L11.2792 9.60028L9.85254 12.4469" stroke="white" stroke-linecap="round" stroke-linejoin="round"/>
        <path d="M10.1133 11.9401H12.46" stroke="white" stroke-linecap="round" stroke-linejoin="round"/>
        <path d="M11.2802 14.6666C9.41356 14.6666 7.89355 13.1532 7.89355 11.2799C7.89355 9.41322 9.40689 7.89325 11.2802 7.89325C13.1469 7.89325 14.6669 9.40655 14.6669 11.2799C14.6669 13.1532 13.1536 14.6666 11.2802 14.6666Z" stroke="white" stroke-linecap="round" stroke-linejoin="round"/>
        <path d="M3.34634 1.33331H5.95968C7.33968 1.33331 8.00635 1.99999 7.97301 3.34666V5.95998C8.00635 7.33998 7.33968 8.00666 5.95968 7.97333H3.34634C1.99968 7.99999 1.33301 7.33331 1.33301 5.95331V3.33999C1.33301 1.99999 1.99968 1.33331 3.34634 1.33331Z" stroke="white" stroke-linecap="round" stroke-linejoin="round"/>
        <path d="M6.00745 3.89972H3.30078" stroke="white" stroke-linecap="round" stroke-linejoin="round"/>
        <path d="M4.64746 3.44659V3.89992" stroke="white" stroke-linecap="round" stroke-linejoin="round"/>
        <path d="M5.32728 3.89319C5.32728 5.05986 4.41395 6.00651 3.29395 6.00651" stroke="white" stroke-linecap="round" stroke-linejoin="round"/>
        <path d="M6.00676 6.00665C5.5201 6.00665 5.0801 5.74665 4.77344 5.33331" stroke="white" stroke-linecap="round" stroke-linejoin="round"/>
        <path d="M1.33301 10C1.33301 12.58 3.41967 14.6667 5.99967 14.6667L5.29967 13.5" stroke="white" stroke-linecap="round" stroke-linejoin="round"/>
        <path d="M14.6667 5.99998C14.6667 3.41998 12.58 1.33331 10 1.33331L10.7 2.49998" stroke="white" stroke-linecap="round" stroke-linejoin="round"/>
    </symbol>

    <symbol viewBox="0 0 24 24" id="soc-1">
        <path fill-rule="evenodd" clip-rule="evenodd" d="M19.792 5.42362C20.6521 5.65468 21.3325 6.33505 21.5635 7.19512C21.9872 8.76123 22 12.009 22 12.009C22 12.009 22 15.2696 21.5764 16.8228C21.3453 17.6829 20.665 18.3633 19.8049 18.5943C18.2516 19.018 12 19.018 12 19.018C12 19.018 5.74839 19.018 4.19512 18.5943C3.33504 18.3633 2.65469 17.6829 2.42362 16.8228C2 15.2567 2 12.009 2 12.009C2 12.009 2 8.76123 2.41078 7.20796C2.64185 6.34788 3.32221 5.66752 4.18228 5.43646C5.73556 5.01283 11.9872 5 11.9872 5C11.9872 5 18.2388 5 19.792 5.42362ZM15.1836 12.009L9.99743 15.0128V9.00514L15.1836 12.009Z"/>
    </symbol>

    <symbol viewBox="0 0 25 24" id="soc-2">
        <path fill-rule="evenodd" clip-rule="evenodd" d="M22.5 12C22.5 17.5228 18.0228 22 12.5 22C6.97715 22 2.5 17.5228 2.5 12C2.5 6.47715 6.97715 2 12.5 2C18.0228 2 22.5 6.47715 22.5 12ZM12.8583 9.38245C11.8857 9.78701 9.94176 10.6243 7.02656 11.8945C6.55318 12.0827 6.3052 12.2669 6.28262 12.4469C6.24447 12.7513 6.62558 12.8711 7.14454 13.0343C7.21513 13.0565 7.28828 13.0795 7.36326 13.1039C7.87385 13.2698 8.56067 13.464 8.91772 13.4717C9.2416 13.4787 9.60309 13.3452 10.0022 13.0711C12.7259 11.2325 14.132 10.3032 14.2202 10.2832C14.2825 10.269 14.3688 10.2512 14.4273 10.3032C14.4858 10.3552 14.48 10.4536 14.4738 10.48C14.4361 10.641 12.9401 12.0318 12.1659 12.7515C11.9246 12.9759 11.7534 13.135 11.7184 13.1714C11.64 13.2528 11.5601 13.3298 11.4833 13.4039C11.009 13.8611 10.6532 14.204 11.503 14.764C11.9113 15.0331 12.2381 15.2556 12.5641 15.4776C12.9201 15.7201 13.2752 15.9619 13.7347 16.2631C13.8517 16.3398 13.9635 16.4195 14.0724 16.4971C14.4867 16.7925 14.8589 17.0579 15.3188 17.0155C15.586 16.991 15.862 16.7397 16.0022 15.9903C16.3335 14.2193 16.9847 10.3821 17.1352 8.80082C17.1483 8.66229 17.1318 8.48499 17.1184 8.40716C17.1051 8.32932 17.0773 8.21843 16.9761 8.13634C16.8563 8.03912 16.6713 8.01862 16.5886 8.02008C16.2125 8.0267 15.6354 8.22736 12.8583 9.38245Z"/>
    </symbol>

    <symbol viewBox="0 0 24 24" id="soc-3">
        <circle cx="11.5" cy="12.5" r="10.5"/>
        <path fill-rule="evenodd" clip-rule="evenodd" d="M8.82461 18.3846V10.0283H6.15766V18.3846H8.82461ZM7.49112 8.8874C8.42114 8.8874 9 8.24572 9 7.44382C8.98267 6.62387 8.42114 6 7.50876 6C6.59648 6 6 6.62387 6 7.44382C6 8.24572 6.57874 8.8874 7.47374 8.8874H7.49112Z" fill="#000810"/>
        <path fill-rule="evenodd" clip-rule="evenodd" d="M10 18.6154H12.7697V13.9145C12.7697 13.663 12.7877 13.4116 12.8608 13.2318C13.061 12.7291 13.5167 12.2085 14.2819 12.2085C15.2841 12.2085 15.685 12.9804 15.685 14.1121V18.6154H18.4545V13.7887C18.4545 11.2031 17.0881 10 15.2658 10C13.7716 10 13.1157 10.8437 12.7512 11.4183H12.7697V10.1975H10.0001C10.0364 10.9874 10 18.6154 10 18.6154Z" fill="#000810"/>
    </symbol>

    <symbol viewBox="0 0 10 18" fill="none" id="arrow">
        <path d="M1 1L9 9L1 17" stroke-linecap="round"/>
    </symbol>

    <symbol viewBox="0 0 20 24" id="cursor">
        <path d="M3.49711 23.7859L0 0L19.4486 11.8746L9.09049 13.5042L3.49711 23.7859Z"/>
    </symbol>










</svg>